<svg width="25" height="25" viewBox="0 0 25 25" fill="none" xmlns="http://www.w3.org/2000/svg">
<path d="M5.20834 2.08331H19.7917C20.0679 2.08331 20.3329 2.19306 20.5282 2.38841C20.7236 2.58376 20.8333 2.84871 20.8333 3.12498V21.875C20.8333 22.1512 20.7236 22.4162 20.5282 22.6115C20.3329 22.8069 20.0679 22.9166 19.7917 22.9166H5.20834C4.93207 22.9166 4.66712 22.8069 4.47177 22.6115C4.27642 22.4162 4.16667 22.1512 4.16667 21.875V3.12498C4.16667 2.84871 4.27642 2.58376 4.47177 2.38841C4.66712 2.19306 4.93207 2.08331 5.20834 2.08331ZM9.375 11.4583V8.33331L4.16667 12.5L9.375 16.6666V13.5416H15.625V11.4583H9.375Z" fill="#8692A6"/>
</svg>
